<?xml version="1.0" encoding="UTF-8" standalone="no"?>
<svg width="40px" height="40px" viewBox="0 0 40 40" version="1.1" xmlns="http://www.w3.org/2000/svg" xmlns:xlink="http://www.w3.org/1999/xlink" xmlns:sketch="http://www.bohemiancoding.com/sketch/ns">
    <!-- Generator: Sketch 3.3.1 (12002) - http://www.bohemiancoding.com/sketch -->
    <title>tick</title>
    <desc>Created with Sketch.</desc>
    <defs></defs>
    <g id="DIRECT-TEST" stroke="none" stroke-width="1" fill="none" fill-rule="evenodd" sketch:type="MSPage">
        <g id="CHARITY_TRUSTEE" sketch:type="MSArtboardGroup" transform="translate(-552.000000, -520.000000)" fill="#FFFFFF">
            <g id="HERO" sketch:type="MSLayerGroup" transform="translate(0.000000, 168.000000)">
                <g id="USP" transform="translate(0.000000, 328.000000)" sketch:type="MSShapeGroup">
                    <g id="USP-1" transform="translate(552.000000, 22.000000)">
                        <path d="M20,42 C8.97219512,42 0,33.0278049 0,22 C0,10.9721951 8.97219512,2 20,2 C31.0278049,2 40,10.9721951 40,22 C40,33.0278049 31.0278049,42 20,42 L20,42 Z M20,5.41463415 C10.8546341,5.41463415 3.41463415,12.8546341 3.41463415,22 C3.41463415,31.1453659 10.8546341,38.5853659 20,38.5853659 C29.1453659,38.5853659 36.5853659,31.1453659 36.5853659,22 C36.5853659,12.8546341 29.1453659,5.41463415 20,5.41463415 Z M18.3031278,30.3752504 C17.921044,30.7572975 17.3021626,30.7572975 16.9200788,30.3752504 L10.509562,23.9653488 C9.76237596,23.2182344 9.83690588,21.9607805 10.7331518,21.3155454 C11.4359973,20.8089792 12.4228112,20.9580248 13.0360321,21.5711868 L16.9247959,25.4595775 C17.3049929,25.839738 17.9219874,25.839738 18.3021844,25.4595775 L28.7014672,15.0612926 C29.3137446,14.4481305 30.3005586,14.299085 31.0043474,14.8056512 C31.9005934,15.4508863 31.9751233,16.7092835 31.2279372,17.4563979 L18.3031278,30.3752504 Z" id="tick"></path>
                    </g>
                </g>
            </g>
        </g>
    </g>
</svg>